<?xml version="1.0" encoding="utf-8"?>
<!-- Generator: Adobe Illustrator 16.0.0, SVG Export Plug-In . SVG Version: 6.00 Build 0)  -->
<!DOCTYPE svg PUBLIC "-//W3C//DTD SVG 1.1//EN" "http://www.w3.org/Graphics/SVG/1.1/DTD/svg11.dtd">
<svg version="1.1" id="Layer_1" xmlns="http://www.w3.org/2000/svg" xmlns:xlink="http://www.w3.org/1999/xlink" x="0px" y="0px"
	 width="100px" height="100.004px" viewBox="0 0 100 100.004" style="enable-background:new 0 0 100 100.004;" xml:space="preserve"
	>
<g>
	<path style="fill:#77AA2E;" d="M100,94c0,3.313-2.687,6-6,6H6c-3.313,0-6-2.687-6-6V6c0-3.313,2.687-6,6-6h88c3.313,0,6,2.687,6,6
		V94z"/>
	<path style="fill:#FFFFFF;" d="M74.498,56.044V69.14c0,3.268-1.16,6.062-3.479,8.381c-2.32,2.32-5.113,3.479-8.38,3.479H28.374
		c-3.267,0-6.062-1.159-8.38-3.479c-2.321-2.319-3.48-5.113-3.48-8.381V34.876c0-3.268,1.159-6.061,3.48-8.381
		c2.318-2.319,5.113-3.479,8.38-3.479h34.265c1.729,0,3.336,0.344,4.817,1.029c0.412,0.192,0.659,0.508,0.742,0.946
		c0.082,0.468-0.042,0.865-0.371,1.195l-2.018,2.018c-0.275,0.274-0.591,0.412-0.948,0.412c-0.082,0-0.205-0.027-0.369-0.083
		c-0.633-0.164-1.251-0.247-1.854-0.247H28.374c-1.812,0-3.363,0.646-4.653,1.937c-1.291,1.29-1.936,2.841-1.936,4.653V69.14
		c0,1.812,0.645,3.363,1.936,4.653c1.29,1.291,2.842,1.936,4.653,1.936h34.265c1.812,0,3.363-0.645,4.652-1.936
		c1.291-1.29,1.938-2.842,1.938-4.653V58.679c0-0.356,0.123-0.658,0.369-0.905l2.637-2.636c0.273-0.274,0.59-0.412,0.946-0.412
		c0.165,0,0.329,0.041,0.495,0.124C74.225,55.069,74.498,55.467,74.498,56.044z M84.012,35.905L50.49,69.428
		c-0.66,0.658-1.441,0.989-2.349,0.989c-0.905,0-1.688-0.331-2.347-0.989L28.086,51.72c-0.658-0.66-0.988-1.441-0.988-2.348
		s0.33-1.688,0.988-2.348l4.531-4.53c0.658-0.659,1.441-0.988,2.347-0.988s1.688,0.329,2.347,0.988l10.831,10.831L74.787,26.68
		c0.659-0.658,1.441-0.988,2.348-0.988s1.688,0.33,2.348,0.988l4.529,4.531C84.671,31.869,85,32.652,85,33.558
		C85,34.464,84.671,35.247,84.012,35.905z"/>
</g>
</svg>
