<?xml version="1.0" encoding="utf-8"?>
<!-- Generator: Adobe Illustrator 16.0.0, SVG Export Plug-In . SVG Version: 6.00 Build 0)  -->
<!DOCTYPE svg PUBLIC "-//W3C//DTD SVG 1.1//EN" "http://www.w3.org/Graphics/SVG/1.1/DTD/svg11.dtd">
<svg version="1.1" id="Layer_1" xmlns="http://www.w3.org/2000/svg" xmlns:xlink="http://www.w3.org/1999/xlink" x="0px" y="0px"
	 width="55px" height="55px" viewBox="0 0 55 55" style="enable-background:new 0 0 55 55;" xml:space="preserve">
<path d="M39.267,28.751v5.902c0,1.473-0.524,2.733-1.569,3.778C36.652,39.478,35.393,40,33.92,40H18.476
	c-1.474,0-2.732-0.522-3.778-1.568c-1.046-1.045-1.568-2.306-1.568-3.778V19.209c0-1.473,0.522-2.732,1.568-3.778
	c1.046-1.045,2.305-1.568,3.778-1.568H33.92c0.781,0,1.504,0.155,2.172,0.464c0.187,0.087,0.297,0.229,0.335,0.427
	c0.037,0.211-0.019,0.391-0.167,0.539L35.35,16.2c-0.124,0.125-0.266,0.186-0.427,0.186c-0.038,0-0.093-0.011-0.166-0.035
	c-0.286-0.074-0.564-0.112-0.837-0.112H18.476c-0.817,0-1.516,0.292-2.099,0.873c-0.58,0.582-0.871,1.281-0.871,2.098v15.444
	c0,0.817,0.291,1.516,0.871,2.098c0.583,0.582,1.281,0.872,2.099,0.872H33.92c0.817,0,1.517-0.29,2.098-0.872
	c0.582-0.582,0.874-1.28,0.874-2.098v-4.715c0-0.16,0.055-0.297,0.165-0.408l1.189-1.188c0.124-0.124,0.266-0.187,0.427-0.187
	c0.073,0,0.148,0.018,0.223,0.056C39.144,28.312,39.267,28.491,39.267,28.751z M43.556,19.672L28.444,34.783
	c-0.298,0.297-0.649,0.446-1.059,0.446c-0.408,0-0.761-0.149-1.058-0.446l-7.983-7.982c-0.297-0.297-0.445-0.649-0.445-1.058
	s0.148-0.762,0.445-1.059l2.043-2.042c0.298-0.296,0.65-0.444,1.058-0.444c0.408,0,0.761,0.148,1.058,0.444l4.883,4.883
	l12.012-12.012c0.297-0.296,0.648-0.445,1.058-0.445c0.408,0,0.76,0.149,1.059,0.445l2.042,2.042C43.853,17.854,44,18.206,44,18.614
	S43.853,19.376,43.556,19.672z"/>
</svg>
